{
	"asset":{
		"generator":"Khronos glTF Blender I/O v4.1.63",
		"version":"2.0"
	},
	"scene":0,
	"scenes":[
		{
			"name":"Scene",
			"nodes":[
				0
			]
		}
	],
	"nodes":[
		{
			"mesh":0,
			"name":"Flowerine_charcater",
			"rotation":[
				0.7071068286895752,
				0,
				0,
				0.7071068286895752
			],
			"scale":[
				0.009999999776482582,
				0.009999999776482582,
				0.009999999776482582
			],
			"translation":[
				0,
				1.0013580322265625e-05,
				0
			]
		}
	],
	"materials":[
		{
			"doubleSided":true,
			"name":"Flowerine_character_MTl",
			"pbrMetallicRoughness":{
				"baseColorTexture":{
					"index":0
				},
				"metallicFactor":0,
				"roughnessFactor":0.5527864098548889
			}
		}
	],
	"meshes":[
		{
			"name":"Mesh",
			"primitives":[
				{
					"attributes":{
						"POSITION":0,
						"NORMAL":1,
						"TEXCOORD_0":2
					},
					"indices":3,
					"material":0
				}
			]
		}
	],
	"textures":[
		{
			"sampler":0,
			"source":0
		}
	],
	"images":[
		{
			"mimeType":"image/jpeg",
			"name":"file1",
			"uri":"floravine/Flowerine%20Character_Material.002_AlbedoTransparency.jpg"
		}
	],
	"accessors":[
		{
			"bufferView":0,
			"componentType":5126,
			"count":12773,
			"max":[
				131.64100646972656,
				182.47398376464844,
				13.207961082458496
			],
			"min":[
				-139.591064453125,
				-176.71932983398438,
				-450.64794921875
			],
			"type":"VEC3"
		},
		{
			"bufferView":1,
			"componentType":5126,
			"count":12773,
			"type":"VEC3"
		},
		{
			"bufferView":2,
			"componentType":5126,
			"count":12773,
			"type":"VEC2"
		},
		{
			"bufferView":3,
			"componentType":5123,
			"count":71694,
			"type":"SCALAR"
		}
	],
	"bufferViews":[
		{
			"buffer":0,
			"byteLength":153276,
			"byteOffset":0,
			"target":34962
		},
		{
			"buffer":0,
			"byteLength":153276,
			"byteOffset":153276,
			"target":34962
		},
		{
			"buffer":0,
			"byteLength":102184,
			"byteOffset":306552,
			"target":34962
		},
		{
			"buffer":0,
			"byteLength":143388,
			"byteOffset":408736,
			"target":34963
		}
	],
	"samplers":[
		{
			"magFilter":9729,
			"minFilter":9987
		}
	],
	"buffers":[
		{
			"byteLength":552124,
			"uri":"flower.bin"
		}
	]
}
