{
	"asset":{
		"generator":"Khronos glTF Blender I/O v4.1.63",
		"version":"2.0"
	},
	"extensionsUsed":[
		"KHR_materials_specular"
	],
	"scene":0,
	"scenes":[
		{
			"name":"Scene",
			"nodes":[
				0,
				1,
				2,
				3
			]
		}
	],
	"nodes":[
		{
			"mesh":0,
			"name":"sun-glasses",
			"rotation":[
				0.5476939082145691,
				-0.5471465587615967,
				0.4472450315952301,
				0.4479217529296875
			],
			"scale":[
				0.06059320643544197,
				0.056897517293691635,
				0.060593217611312866
			],
			"translation":[
				0.03326710686087608,
				8.31692123413086,
				0.135111466050148
			]
		},
		{
			"mesh":1,
			"name":"Eyes",
			"rotation":[
				0.7071068286895752,
				0,
				0,
				0.7071068286895752
			],
			"scale":[
				0.04968110844492912,
				0.04968110844492912,
				0.04968110844492912
			]
		},
		{
			"mesh":2,
			"name":"default",
			"rotation":[
				0.7071068286895752,
				0,
				0,
				0.7071068286895752
			],
			"scale":[
				0.04968110844492912,
				0.04968110844492912,
				0.04968110844492912
			]
		},
		{
			"mesh":3,
			"name":"Body.001",
			"rotation":[
				0.70710688829422,
				0,
				0,
				0.7071066498756409
			],
			"scale":[
				0.04968110844492912,
				0.04463472589850426,
				0.04968110844492912
			],
			"translation":[
				0,
				-0.04220958799123764,
				0
			]
		}
	],
	"animations":[
		{
			"channels":[
				{
					"sampler":0,
					"target":{
						"node":3,
						"path":"translation"
					}
				},
				{
					"sampler":1,
					"target":{
						"node":3,
						"path":"rotation"
					}
				},
				{
					"sampler":2,
					"target":{
						"node":3,
						"path":"scale"
					}
				}
			],
			"name":"Body.001|Body.001|Body.001Action",
			"samplers":[
				{
					"input":82,
					"interpolation":"LINEAR",
					"output":83
				},
				{
					"input":82,
					"interpolation":"LINEAR",
					"output":84
				},
				{
					"input":82,
					"interpolation":"LINEAR",
					"output":85
				}
			]
		}
	],
	"materials":[
		{
			"doubleSided":true,
			"name":"Material.001",
			"pbrMetallicRoughness":{
				"metallicFactor":0,
				"roughnessFactor":0.5
			}
		},
		{
			"alphaMode":"BLEND",
			"doubleSided":true,
			"extensions":{
				"KHR_materials_specular":{}
			},
			"name":"Bodymat.001",
			"pbrMetallicRoughness":{
				"metallicFactor":0.03999999910593033
			}
		},
		{
			"doubleSided":true,
			"extensions":{
				"KHR_materials_specular":{
					"specularFactor":0
				}
			},
			"name":"Blue Denim Fabric",
			"pbrMetallicRoughness":{
				"baseColorFactor":[
					0.800000011920929,
					0.800000011920929,
					0.800000011920929,
					1
				],
				"metallicFactor":0,
				"roughnessFactor":0.5
			}
		},
		{
			"doubleSided":true,
			"name":"Red and Black Buffalo Plaid Fabric",
			"pbrMetallicRoughness":{
				"baseColorFactor":[
					0.800000011920929,
					0.800000011920929,
					0.800000011920929,
					1
				],
				"metallicFactor":0,
				"roughnessFactor":0.4000000059604645
			}
		},
		{
			"doubleSided":true,
			"extensions":{
				"KHR_materials_specular":{
					"specularFactor":0
				}
			},
			"name":"Straw Texture",
			"pbrMetallicRoughness":{
				"metallicFactor":0
			}
		},
		{
			"doubleSided":true,
			"extensions":{
				"KHR_materials_specular":{
					"specularFactor":0.10000000149011612
				}
			},
			"name":"Straw Texture.001",
			"pbrMetallicRoughness":{
				"metallicFactor":0
			}
		},
		{
			"doubleSided":true,
			"extensions":{
				"KHR_materials_specular":{
					"specularFactor":0
				}
			},
			"name":"Material4-material",
			"pbrMetallicRoughness":{
				"baseColorFactor":[
					0.800000011920929,
					0.800000011920929,
					0.800000011920929,
					1
				],
				"metallicFactor":0,
				"roughnessFactor":0.5
			}
		},
		{
			"doubleSided":true,
			"extensions":{
				"KHR_materials_specular":{
					"specularFactor":0
				}
			},
			"name":"Material3-material",
			"pbrMetallicRoughness":{
				"baseColorFactor":[
					0.800000011920929,
					0.800000011920929,
					0.800000011920929,
					1
				],
				"metallicFactor":0,
				"roughnessFactor":0.5
			}
		}
	],
	"meshes":[
		{
			"name":"sun-glasses",
			"primitives":[
				{
					"attributes":{
						"POSITION":0,
						"NORMAL":1,
						"TEXCOORD_0":2
					},
					"indices":3,
					"material":0
				}
			]
		},
		{
			"name":"Eyesmesh.001",
			"primitives":[
				{
					"attributes":{
						"POSITION":4,
						"NORMAL":5,
						"TEXCOORD_0":6
					},
					"indices":7,
					"material":1
				}
			]
		},
		{
			"name":"defaultmesh.001",
			"primitives":[
				{
					"attributes":{
						"POSITION":8,
						"NORMAL":9,
						"TEXCOORD_0":10
					},
					"indices":11,
					"material":1
				}
			]
		},
		{
			"name":"Bodymesh.002",
			"primitives":[
				{
					"attributes":{
						"POSITION":12,
						"NORMAL":13,
						"TEXCOORD_0":14,
						"TEXCOORD_1":15,
						"TEXCOORD_2":16,
						"TEXCOORD_3":17,
						"TEXCOORD_4":18,
						"TEXCOORD_5":19,
						"TEXCOORD_6":20
					},
					"indices":21,
					"material":1
				},
				{
					"attributes":{
						"POSITION":22,
						"NORMAL":23,
						"TEXCOORD_0":24,
						"TEXCOORD_1":25,
						"TEXCOORD_2":26,
						"TEXCOORD_3":27,
						"TEXCOORD_4":28,
						"TEXCOORD_5":29,
						"TEXCOORD_6":30
					},
					"indices":31,
					"material":2
				},
				{
					"attributes":{
						"POSITION":32,
						"NORMAL":33,
						"TEXCOORD_0":34,
						"TEXCOORD_1":35,
						"TEXCOORD_2":36,
						"TEXCOORD_3":37,
						"TEXCOORD_4":38,
						"TEXCOORD_5":39,
						"TEXCOORD_6":40
					},
					"indices":41,
					"material":3
				},
				{
					"attributes":{
						"POSITION":42,
						"NORMAL":43,
						"TEXCOORD_0":44,
						"TEXCOORD_1":45,
						"TEXCOORD_2":46,
						"TEXCOORD_3":47,
						"TEXCOORD_4":48,
						"TEXCOORD_5":49,
						"TEXCOORD_6":50
					},
					"indices":51,
					"material":4
				},
				{
					"attributes":{
						"POSITION":52,
						"NORMAL":53,
						"TEXCOORD_0":54,
						"TEXCOORD_1":55,
						"TEXCOORD_2":56,
						"TEXCOORD_3":57,
						"TEXCOORD_4":58,
						"TEXCOORD_5":59,
						"TEXCOORD_6":60
					},
					"indices":61,
					"material":5
				},
				{
					"attributes":{
						"POSITION":62,
						"NORMAL":63,
						"TEXCOORD_0":64,
						"TEXCOORD_1":65,
						"TEXCOORD_2":66,
						"TEXCOORD_3":67,
						"TEXCOORD_4":68,
						"TEXCOORD_5":69,
						"TEXCOORD_6":70
					},
					"indices":71,
					"material":6
				},
				{
					"attributes":{
						"POSITION":72,
						"NORMAL":73,
						"TEXCOORD_0":74,
						"TEXCOORD_1":75,
						"TEXCOORD_2":76,
						"TEXCOORD_3":77,
						"TEXCOORD_4":78,
						"TEXCOORD_5":79,
						"TEXCOORD_6":80
					},
					"indices":81,
					"material":7
				}
			]
		}
	],
	"accessors":[
		{
			"bufferView":0,
			"componentType":5126,
			"count":833,
			"max":[
				7.331048011779785,
				8.354909896850586,
				2.384300947189331
			],
			"min":[
				-7.213500022888184,
				-7.309136867523193,
				-1.3702640533447266
			],
			"type":"VEC3"
		},
		{
			"bufferView":1,
			"componentType":5126,
			"count":833,
			"type":"VEC3"
		},
		{
			"bufferView":2,
			"componentType":5126,
			"count":833,
			"type":"VEC2"
		},
		{
			"bufferView":3,
			"componentType":5123,
			"count":1692,
			"type":"SCALAR"
		},
		{
			"bufferView":4,
			"componentType":5126,
			"count":804,
			"max":[
				4.8359808921813965,
				10.506050109863281,
				-165.261474609375
			],
			"min":[
				-4.833083629608154,
				7.117018699645996,
				-168.67276000976562
			],
			"type":"VEC3"
		},
		{
			"bufferView":5,
			"componentType":5126,
			"count":804,
			"type":"VEC3"
		},
		{
			"bufferView":6,
			"componentType":5126,
			"count":804,
			"type":"VEC2"
		},
		{
			"bufferView":7,
			"componentType":5123,
			"count":4560,
			"type":"SCALAR"
		},
		{
			"bufferView":8,
			"componentType":5126,
			"count":106,
			"max":[
				5.519492149353027,
				11.513954162597656,
				-165.5970458984375
			],
			"min":[
				-5.51657772064209,
				9.431680679321289,
				-167.5686492919922
			],
			"type":"VEC3"
		},
		{
			"bufferView":9,
			"componentType":5126,
			"count":106,
			"type":"VEC3"
		},
		{
			"bufferView":10,
			"componentType":5126,
			"count":106,
			"type":"VEC2"
		},
		{
			"bufferView":11,
			"componentType":5123,
			"count":342,
			"type":"SCALAR"
		},
		{
			"bufferView":12,
			"componentType":5126,
			"count":15974,
			"max":[
				78.61878967285156,
				20.621639251708984,
				-0.0008906126022338867
			],
			"min":[
				-80.4334945678711,
				-15.988826751708984,
				-178.89938354492188
			],
			"type":"VEC3"
		},
		{
			"bufferView":13,
			"componentType":5126,
			"count":15974,
			"type":"VEC3"
		},
		{
			"bufferView":14,
			"componentType":5126,
			"count":15974,
			"type":"VEC2"
		},
		{
			"bufferView":15,
			"componentType":5126,
			"count":15974,
			"type":"VEC2"
		},
		{
			"bufferView":16,
			"componentType":5126,
			"count":15974,
			"type":"VEC2"
		},
		{
			"bufferView":17,
			"componentType":5126,
			"count":15974,
			"type":"VEC2"
		},
		{
			"bufferView":18,
			"componentType":5126,
			"count":15974,
			"type":"VEC2"
		},
		{
			"bufferView":19,
			"componentType":5126,
			"count":15974,
			"type":"VEC2"
		},
		{
			"bufferView":20,
			"componentType":5126,
			"count":15974,
			"type":"VEC2"
		},
		{
			"bufferView":21,
			"componentType":5123,
			"count":86784,
			"type":"SCALAR"
		},
		{
			"bufferView":22,
			"componentType":5126,
			"count":5397,
			"max":[
				20.10238265991211,
				17.217254638671875,
				-12.133577346801758
			],
			"min":[
				-20.44671058654785,
				-16.937355041503906,
				-97.50313568115234
			],
			"type":"VEC3"
		},
		{
			"bufferView":23,
			"componentType":5126,
			"count":5397,
			"type":"VEC3"
		},
		{
			"bufferView":24,
			"componentType":5126,
			"count":5397,
			"type":"VEC2"
		},
		{
			"bufferView":25,
			"componentType":5126,
			"count":5397,
			"type":"VEC2"
		},
		{
			"bufferView":26,
			"componentType":5126,
			"count":5397,
			"type":"VEC2"
		},
		{
			"bufferView":27,
			"componentType":5126,
			"count":5397,
			"type":"VEC2"
		},
		{
			"bufferView":28,
			"componentType":5126,
			"count":5397,
			"type":"VEC2"
		},
		{
			"bufferView":29,
			"componentType":5126,
			"count":5397,
			"type":"VEC2"
		},
		{
			"bufferView":30,
			"componentType":5126,
			"count":5397,
			"type":"VEC2"
		},
		{
			"bufferView":31,
			"componentType":5123,
			"count":23148,
			"type":"SCALAR"
		},
		{
			"bufferView":32,
			"componentType":5126,
			"count":3810,
			"max":[
				35.924068450927734,
				19.502758026123047,
				-83.89682006835938
			],
			"min":[
				-37.967796325683594,
				-18.366849899291992,
				-154.4423065185547
			],
			"type":"VEC3"
		},
		{
			"bufferView":33,
			"componentType":5126,
			"count":3810,
			"type":"VEC3"
		},
		{
			"bufferView":34,
			"componentType":5126,
			"count":3810,
			"type":"VEC2"
		},
		{
			"bufferView":35,
			"componentType":5126,
			"count":3810,
			"type":"VEC2"
		},
		{
			"bufferView":36,
			"componentType":5126,
			"count":3810,
			"type":"VEC2"
		},
		{
			"bufferView":37,
			"componentType":5126,
			"count":3810,
			"type":"VEC2"
		},
		{
			"bufferView":38,
			"componentType":5126,
			"count":3810,
			"type":"VEC2"
		},
		{
			"bufferView":39,
			"componentType":5126,
			"count":3810,
			"type":"VEC2"
		},
		{
			"bufferView":40,
			"componentType":5126,
			"count":3810,
			"type":"VEC2"
		},
		{
			"bufferView":41,
			"componentType":5123,
			"count":17406,
			"type":"SCALAR"
		},
		{
			"bufferView":42,
			"componentType":5126,
			"count":19102,
			"max":[
				8.254663467407227,
				14.982892036437988,
				-169.96080017089844
			],
			"min":[
				-8.991119384765625,
				-9.116530418395996,
				-181.5221405029297
			],
			"type":"VEC3"
		},
		{
			"bufferView":43,
			"componentType":5126,
			"count":19102,
			"type":"VEC3"
		},
		{
			"bufferView":44,
			"componentType":5126,
			"count":19102,
			"type":"VEC2"
		},
		{
			"bufferView":45,
			"componentType":5126,
			"count":19102,
			"type":"VEC2"
		},
		{
			"bufferView":46,
			"componentType":5126,
			"count":19102,
			"type":"VEC2"
		},
		{
			"bufferView":47,
			"componentType":5126,
			"count":19102,
			"type":"VEC2"
		},
		{
			"bufferView":48,
			"componentType":5126,
			"count":19102,
			"type":"VEC2"
		},
		{
			"bufferView":49,
			"componentType":5126,
			"count":19102,
			"type":"VEC2"
		},
		{
			"bufferView":50,
			"componentType":5126,
			"count":19102,
			"type":"VEC2"
		},
		{
			"bufferView":51,
			"componentType":5123,
			"count":89220,
			"type":"SCALAR"
		},
		{
			"bufferView":52,
			"componentType":5126,
			"count":1060,
			"max":[
				7.039490222930908,
				24.043237686157227,
				-169.62461853027344
			],
			"min":[
				-7.527978420257568,
				10.966781616210938,
				-174.64376831054688
			],
			"type":"VEC3"
		},
		{
			"bufferView":53,
			"componentType":5126,
			"count":1060,
			"type":"VEC3"
		},
		{
			"bufferView":54,
			"componentType":5126,
			"count":1060,
			"type":"VEC2"
		},
		{
			"bufferView":55,
			"componentType":5126,
			"count":1060,
			"type":"VEC2"
		},
		{
			"bufferView":56,
			"componentType":5126,
			"count":1060,
			"type":"VEC2"
		},
		{
			"bufferView":57,
			"componentType":5126,
			"count":1060,
			"type":"VEC2"
		},
		{
			"bufferView":58,
			"componentType":5126,
			"count":1060,
			"type":"VEC2"
		},
		{
			"bufferView":59,
			"componentType":5126,
			"count":1060,
			"type":"VEC2"
		},
		{
			"bufferView":60,
			"componentType":5126,
			"count":1060,
			"type":"VEC2"
		},
		{
			"bufferView":61,
			"componentType":5123,
			"count":4272,
			"type":"SCALAR"
		},
		{
			"bufferView":62,
			"componentType":5126,
			"count":2839,
			"max":[
				6.782963752746582,
				19.881378173828125,
				-169.1560821533203
			],
			"min":[
				-4.3486762046813965,
				-8.918082237243652,
				-171.64315795898438
			],
			"type":"VEC3"
		},
		{
			"bufferView":63,
			"componentType":5126,
			"count":2839,
			"type":"VEC3"
		},
		{
			"bufferView":64,
			"componentType":5126,
			"count":2839,
			"type":"VEC2"
		},
		{
			"bufferView":65,
			"componentType":5126,
			"count":2839,
			"type":"VEC2"
		},
		{
			"bufferView":66,
			"componentType":5126,
			"count":2839,
			"type":"VEC2"
		},
		{
			"bufferView":67,
			"componentType":5126,
			"count":2839,
			"type":"VEC2"
		},
		{
			"bufferView":68,
			"componentType":5126,
			"count":2839,
			"type":"VEC2"
		},
		{
			"bufferView":69,
			"componentType":5126,
			"count":2839,
			"type":"VEC2"
		},
		{
			"bufferView":70,
			"componentType":5126,
			"count":2839,
			"type":"VEC2"
		},
		{
			"bufferView":71,
			"componentType":5123,
			"count":11730,
			"type":"SCALAR"
		},
		{
			"bufferView":72,
			"componentType":5126,
			"count":1462,
			"max":[
				3.130985736846924,
				-8.380951881408691,
				-164.99053955078125
			],
			"min":[
				-6.64960241317749,
				-9.317103385925293,
				-171.58470153808594
			],
			"type":"VEC3"
		},
		{
			"bufferView":73,
			"componentType":5126,
			"count":1462,
			"type":"VEC3"
		},
		{
			"bufferView":74,
			"componentType":5126,
			"count":1462,
			"type":"VEC2"
		},
		{
			"bufferView":75,
			"componentType":5126,
			"count":1462,
			"type":"VEC2"
		},
		{
			"bufferView":76,
			"componentType":5126,
			"count":1462,
			"type":"VEC2"
		},
		{
			"bufferView":77,
			"componentType":5126,
			"count":1462,
			"type":"VEC2"
		},
		{
			"bufferView":78,
			"componentType":5126,
			"count":1462,
			"type":"VEC2"
		},
		{
			"bufferView":79,
			"componentType":5126,
			"count":1462,
			"type":"VEC2"
		},
		{
			"bufferView":80,
			"componentType":5126,
			"count":1462,
			"type":"VEC2"
		},
		{
			"bufferView":81,
			"componentType":5123,
			"count":5094,
			"type":"SCALAR"
		},
		{
			"bufferView":82,
			"componentType":5126,
			"count":1,
			"max":[
				0.03333333333333333
			],
			"min":[
				0.03333333333333333
			],
			"type":"SCALAR"
		},
		{
			"bufferView":83,
			"componentType":5126,
			"count":1,
			"type":"VEC3"
		},
		{
			"bufferView":84,
			"componentType":5126,
			"count":1,
			"type":"VEC4"
		},
		{
			"bufferView":85,
			"componentType":5126,
			"count":1,
			"type":"VEC3"
		}
	],
	"bufferViews":[
		{
			"buffer":0,
			"byteLength":9996,
			"byteOffset":0,
			"target":34962
		},
		{
			"buffer":0,
			"byteLength":9996,
			"byteOffset":9996,
			"target":34962
		},
		{
			"buffer":0,
			"byteLength":6664,
			"byteOffset":19992,
			"target":34962
		},
		{
			"buffer":0,
			"byteLength":3384,
			"byteOffset":26656,
			"target":34963
		},
		{
			"buffer":0,
			"byteLength":9648,
			"byteOffset":30040,
			"target":34962
		},
		{
			"buffer":0,
			"byteLength":9648,
			"byteOffset":39688,
			"target":34962
		},
		{
			"buffer":0,
			"byteLength":6432,
			"byteOffset":49336,
			"target":34962
		},
		{
			"buffer":0,
			"byteLength":9120,
			"byteOffset":55768,
			"target":34963
		},
		{
			"buffer":0,
			"byteLength":1272,
			"byteOffset":64888,
			"target":34962
		},
		{
			"buffer":0,
			"byteLength":1272,
			"byteOffset":66160,
			"target":34962
		},
		{
			"buffer":0,
			"byteLength":848,
			"byteOffset":67432,
			"target":34962
		},
		{
			"buffer":0,
			"byteLength":684,
			"byteOffset":68280,
			"target":34963
		},
		{
			"buffer":0,
			"byteLength":191688,
			"byteOffset":68964,
			"target":34962
		},
		{
			"buffer":0,
			"byteLength":191688,
			"byteOffset":260652,
			"target":34962
		},
		{
			"buffer":0,
			"byteLength":127792,
			"byteOffset":452340,
			"target":34962
		},
		{
			"buffer":0,
			"byteLength":127792,
			"byteOffset":580132,
			"target":34962
		},
		{
			"buffer":0,
			"byteLength":127792,
			"byteOffset":707924,
			"target":34962
		},
		{
			"buffer":0,
			"byteLength":127792,
			"byteOffset":835716,
			"target":34962
		},
		{
			"buffer":0,
			"byteLength":127792,
			"byteOffset":963508,
			"target":34962
		},
		{
			"buffer":0,
			"byteLength":127792,
			"byteOffset":1091300,
			"target":34962
		},
		{
			"buffer":0,
			"byteLength":127792,
			"byteOffset":1219092,
			"target":34962
		},
		{
			"buffer":0,
			"byteLength":173568,
			"byteOffset":1346884,
			"target":34963
		},
		{
			"buffer":0,
			"byteLength":64764,
			"byteOffset":1520452,
			"target":34962
		},
		{
			"buffer":0,
			"byteLength":64764,
			"byteOffset":1585216,
			"target":34962
		},
		{
			"buffer":0,
			"byteLength":43176,
			"byteOffset":1649980,
			"target":34962
		},
		{
			"buffer":0,
			"byteLength":43176,
			"byteOffset":1693156,
			"target":34962
		},
		{
			"buffer":0,
			"byteLength":43176,
			"byteOffset":1736332,
			"target":34962
		},
		{
			"buffer":0,
			"byteLength":43176,
			"byteOffset":1779508,
			"target":34962
		},
		{
			"buffer":0,
			"byteLength":43176,
			"byteOffset":1822684,
			"target":34962
		},
		{
			"buffer":0,
			"byteLength":43176,
			"byteOffset":1865860,
			"target":34962
		},
		{
			"buffer":0,
			"byteLength":43176,
			"byteOffset":1909036,
			"target":34962
		},
		{
			"buffer":0,
			"byteLength":46296,
			"byteOffset":1952212,
			"target":34963
		},
		{
			"buffer":0,
			"byteLength":45720,
			"byteOffset":1998508,
			"target":34962
		},
		{
			"buffer":0,
			"byteLength":45720,
			"byteOffset":2044228,
			"target":34962
		},
		{
			"buffer":0,
			"byteLength":30480,
			"byteOffset":2089948,
			"target":34962
		},
		{
			"buffer":0,
			"byteLength":30480,
			"byteOffset":2120428,
			"target":34962
		},
		{
			"buffer":0,
			"byteLength":30480,
			"byteOffset":2150908,
			"target":34962
		},
		{
			"buffer":0,
			"byteLength":30480,
			"byteOffset":2181388,
			"target":34962
		},
		{
			"buffer":0,
			"byteLength":30480,
			"byteOffset":2211868,
			"target":34962
		},
		{
			"buffer":0,
			"byteLength":30480,
			"byteOffset":2242348,
			"target":34962
		},
		{
			"buffer":0,
			"byteLength":30480,
			"byteOffset":2272828,
			"target":34962
		},
		{
			"buffer":0,
			"byteLength":34812,
			"byteOffset":2303308,
			"target":34963
		},
		{
			"buffer":0,
			"byteLength":229224,
			"byteOffset":2338120,
			"target":34962
		},
		{
			"buffer":0,
			"byteLength":229224,
			"byteOffset":2567344,
			"target":34962
		},
		{
			"buffer":0,
			"byteLength":152816,
			"byteOffset":2796568,
			"target":34962
		},
		{
			"buffer":0,
			"byteLength":152816,
			"byteOffset":2949384,
			"target":34962
		},
		{
			"buffer":0,
			"byteLength":152816,
			"byteOffset":3102200,
			"target":34962
		},
		{
			"buffer":0,
			"byteLength":152816,
			"byteOffset":3255016,
			"target":34962
		},
		{
			"buffer":0,
			"byteLength":152816,
			"byteOffset":3407832,
			"target":34962
		},
		{
			"buffer":0,
			"byteLength":152816,
			"byteOffset":3560648,
			"target":34962
		},
		{
			"buffer":0,
			"byteLength":152816,
			"byteOffset":3713464,
			"target":34962
		},
		{
			"buffer":0,
			"byteLength":178440,
			"byteOffset":3866280,
			"target":34963
		},
		{
			"buffer":0,
			"byteLength":12720,
			"byteOffset":4044720,
			"target":34962
		},
		{
			"buffer":0,
			"byteLength":12720,
			"byteOffset":4057440,
			"target":34962
		},
		{
			"buffer":0,
			"byteLength":8480,
			"byteOffset":4070160,
			"target":34962
		},
		{
			"buffer":0,
			"byteLength":8480,
			"byteOffset":4078640,
			"target":34962
		},
		{
			"buffer":0,
			"byteLength":8480,
			"byteOffset":4087120,
			"target":34962
		},
		{
			"buffer":0,
			"byteLength":8480,
			"byteOffset":4095600,
			"target":34962
		},
		{
			"buffer":0,
			"byteLength":8480,
			"byteOffset":4104080,
			"target":34962
		},
		{
			"buffer":0,
			"byteLength":8480,
			"byteOffset":4112560,
			"target":34962
		},
		{
			"buffer":0,
			"byteLength":8480,
			"byteOffset":4121040,
			"target":34962
		},
		{
			"buffer":0,
			"byteLength":8544,
			"byteOffset":4129520,
			"target":34963
		},
		{
			"buffer":0,
			"byteLength":34068,
			"byteOffset":4138064,
			"target":34962
		},
		{
			"buffer":0,
			"byteLength":34068,
			"byteOffset":4172132,
			"target":34962
		},
		{
			"buffer":0,
			"byteLength":22712,
			"byteOffset":4206200,
			"target":34962
		},
		{
			"buffer":0,
			"byteLength":22712,
			"byteOffset":4228912,
			"target":34962
		},
		{
			"buffer":0,
			"byteLength":22712,
			"byteOffset":4251624,
			"target":34962
		},
		{
			"buffer":0,
			"byteLength":22712,
			"byteOffset":4274336,
			"target":34962
		},
		{
			"buffer":0,
			"byteLength":22712,
			"byteOffset":4297048,
			"target":34962
		},
		{
			"buffer":0,
			"byteLength":22712,
			"byteOffset":4319760,
			"target":34962
		},
		{
			"buffer":0,
			"byteLength":22712,
			"byteOffset":4342472,
			"target":34962
		},
		{
			"buffer":0,
			"byteLength":23460,
			"byteOffset":4365184,
			"target":34963
		},
		{
			"buffer":0,
			"byteLength":17544,
			"byteOffset":4388644,
			"target":34962
		},
		{
			"buffer":0,
			"byteLength":17544,
			"byteOffset":4406188,
			"target":34962
		},
		{
			"buffer":0,
			"byteLength":11696,
			"byteOffset":4423732,
			"target":34962
		},
		{
			"buffer":0,
			"byteLength":11696,
			"byteOffset":4435428,
			"target":34962
		},
		{
			"buffer":0,
			"byteLength":11696,
			"byteOffset":4447124,
			"target":34962
		},
		{
			"buffer":0,
			"byteLength":11696,
			"byteOffset":4458820,
			"target":34962
		},
		{
			"buffer":0,
			"byteLength":11696,
			"byteOffset":4470516,
			"target":34962
		},
		{
			"buffer":0,
			"byteLength":11696,
			"byteOffset":4482212,
			"target":34962
		},
		{
			"buffer":0,
			"byteLength":11696,
			"byteOffset":4493908,
			"target":34962
		},
		{
			"buffer":0,
			"byteLength":10188,
			"byteOffset":4505604,
			"target":34963
		},
		{
			"buffer":0,
			"byteLength":4,
			"byteOffset":4515792
		},
		{
			"buffer":0,
			"byteLength":12,
			"byteOffset":4515796
		},
		{
			"buffer":0,
			"byteLength":16,
			"byteOffset":4515808
		},
		{
			"buffer":0,
			"byteLength":12,
			"byteOffset":4515824
		}
	],
	"buffers":[
		{
			"byteLength":4515836,
			"uri":"human.bin"
		}
	]
}
